<mxfile host="app.diagrams.net" modified="2024-04-21T15:04:21.585Z" agent="Mozilla/5.0 (Windows NT 10.0; Win64; x64) AppleWebKit/537.36 (KHTML, like Gecko) Chrome/124.0.0.0 Safari/537.36 Edg/124.0.0.0" etag="Iqa4f91ef7wIUIC0EIno" version="24.2.5" type="device">
  <diagram name="Page-1" id="TwfCLwTiLvwOZ_-Kt7cM">
    <mxGraphModel dx="1038" dy="483" grid="1" gridSize="10" guides="1" tooltips="1" connect="1" arrows="1" fold="1" page="1" pageScale="1" pageWidth="1169" pageHeight="827" math="0" shadow="0">
      <root>
        <mxCell id="0" />
        <mxCell id="1" parent="0" />
        <mxCell id="JBdT1eVPyIQUbTCBiPAi-1" value="" style="rounded=1;whiteSpace=wrap;html=1;" parent="1" vertex="1">
          <mxGeometry x="60" y="84" width="320" height="660" as="geometry" />
        </mxCell>
        <mxCell id="JBdT1eVPyIQUbTCBiPAi-2" value="USERNAME" style="rounded=1;whiteSpace=wrap;html=1;" parent="1" vertex="1">
          <mxGeometry x="105" y="300" width="230" height="40" as="geometry" />
        </mxCell>
        <mxCell id="JBdT1eVPyIQUbTCBiPAi-3" value="PASSWORD" style="rounded=1;whiteSpace=wrap;html=1;" parent="1" vertex="1">
          <mxGeometry x="105" y="360" width="230" height="40" as="geometry" />
        </mxCell>
        <mxCell id="JBdT1eVPyIQUbTCBiPAi-4" value="LOGIN" style="rounded=1;whiteSpace=wrap;html=1;" parent="1" vertex="1">
          <mxGeometry x="160" y="440" width="120" height="34" as="geometry" />
        </mxCell>
        <mxCell id="JBdT1eVPyIQUbTCBiPAi-5" value="&lt;font style=&quot;font-size: 72px;&quot;&gt;LOGIN&lt;/font&gt;" style="text;html=1;align=center;verticalAlign=middle;whiteSpace=wrap;rounded=0;" parent="1" vertex="1">
          <mxGeometry x="190" y="190" width="60" height="30" as="geometry" />
        </mxCell>
        <mxCell id="JBdT1eVPyIQUbTCBiPAi-8" value="Lupa Password?" style="text;html=1;align=center;verticalAlign=middle;whiteSpace=wrap;rounded=0;" parent="1" vertex="1">
          <mxGeometry x="250" y="410" width="105" height="30" as="geometry" />
        </mxCell>
        <mxCell id="2_v6h10c_rz7eVXnYMiM-1" value="G" style="ellipse;whiteSpace=wrap;html=1;aspect=fixed;" vertex="1" parent="1">
          <mxGeometry x="260" y="512" width="20" height="20" as="geometry" />
        </mxCell>
        <mxCell id="2_v6h10c_rz7eVXnYMiM-2" value="f" style="ellipse;whiteSpace=wrap;html=1;aspect=fixed;" vertex="1" parent="1">
          <mxGeometry x="290" y="512" width="20" height="20" as="geometry" />
        </mxCell>
        <mxCell id="2_v6h10c_rz7eVXnYMiM-3" value="t" style="ellipse;whiteSpace=wrap;html=1;aspect=fixed;" vertex="1" parent="1">
          <mxGeometry x="320" y="512" width="20" height="20" as="geometry" />
        </mxCell>
        <mxCell id="2_v6h10c_rz7eVXnYMiM-4" value="Buat Account?" style="text;html=1;align=center;verticalAlign=middle;whiteSpace=wrap;rounded=0;" vertex="1" parent="1">
          <mxGeometry x="85" y="410" width="105" height="30" as="geometry" />
        </mxCell>
        <mxCell id="2_v6h10c_rz7eVXnYMiM-13" value="" style="rounded=1;whiteSpace=wrap;html=1;" vertex="1" parent="1">
          <mxGeometry x="540" y="84" width="320" height="660" as="geometry" />
        </mxCell>
        <mxCell id="2_v6h10c_rz7eVXnYMiM-14" value="Tanggal Lahir" style="rounded=1;whiteSpace=wrap;html=1;" vertex="1" parent="1">
          <mxGeometry x="570" y="300" width="260" height="40" as="geometry" />
        </mxCell>
        <mxCell id="2_v6h10c_rz7eVXnYMiM-15" value="Username" style="rounded=1;whiteSpace=wrap;html=1;" vertex="1" parent="1">
          <mxGeometry x="570" y="359" width="260" height="40" as="geometry" />
        </mxCell>
        <mxCell id="2_v6h10c_rz7eVXnYMiM-16" value="Buat Akun" style="rounded=1;whiteSpace=wrap;html=1;" vertex="1" parent="1">
          <mxGeometry x="710" y="640" width="120" height="34" as="geometry" />
        </mxCell>
        <mxCell id="2_v6h10c_rz7eVXnYMiM-17" value="&lt;font style=&quot;font-size: 48px;&quot;&gt;Buat Account&lt;/font&gt;" style="text;html=1;align=center;verticalAlign=middle;whiteSpace=wrap;rounded=0;" vertex="1" parent="1">
          <mxGeometry x="540" y="190" width="320" height="30" as="geometry" />
        </mxCell>
        <mxCell id="2_v6h10c_rz7eVXnYMiM-23" value="Nama Lengkap" style="rounded=1;whiteSpace=wrap;html=1;" vertex="1" parent="1">
          <mxGeometry x="570" y="240" width="260" height="40" as="geometry" />
        </mxCell>
        <mxCell id="2_v6h10c_rz7eVXnYMiM-24" style="edgeStyle=orthogonalEdgeStyle;rounded=0;orthogonalLoop=1;jettySize=auto;html=1;exitX=0.5;exitY=1;exitDx=0;exitDy=0;" edge="1" parent="1" source="2_v6h10c_rz7eVXnYMiM-16" target="2_v6h10c_rz7eVXnYMiM-16">
          <mxGeometry relative="1" as="geometry" />
        </mxCell>
        <mxCell id="2_v6h10c_rz7eVXnYMiM-25" value="Password" style="rounded=1;whiteSpace=wrap;html=1;" vertex="1" parent="1">
          <mxGeometry x="570" y="423" width="260" height="40" as="geometry" />
        </mxCell>
        <mxCell id="2_v6h10c_rz7eVXnYMiM-27" value="Atau Login Dengan" style="text;html=1;align=center;verticalAlign=middle;whiteSpace=wrap;rounded=0;" vertex="1" parent="1">
          <mxGeometry x="260" y="482" width="105" height="30" as="geometry" />
        </mxCell>
        <mxCell id="2_v6h10c_rz7eVXnYMiM-32" value="Atau Login Dengan" style="text;html=1;align=center;verticalAlign=middle;whiteSpace=wrap;rounded=0;" vertex="1" parent="1">
          <mxGeometry x="570" y="680" width="105" height="30" as="geometry" />
        </mxCell>
        <mxCell id="2_v6h10c_rz7eVXnYMiM-33" value="G" style="ellipse;whiteSpace=wrap;html=1;aspect=fixed;" vertex="1" parent="1">
          <mxGeometry x="570" y="710" width="20" height="20" as="geometry" />
        </mxCell>
        <mxCell id="2_v6h10c_rz7eVXnYMiM-34" value="f" style="ellipse;whiteSpace=wrap;html=1;aspect=fixed;" vertex="1" parent="1">
          <mxGeometry x="600" y="710" width="20" height="20" as="geometry" />
        </mxCell>
        <mxCell id="2_v6h10c_rz7eVXnYMiM-35" value="t" style="ellipse;whiteSpace=wrap;html=1;aspect=fixed;" vertex="1" parent="1">
          <mxGeometry x="630" y="710" width="20" height="20" as="geometry" />
        </mxCell>
        <mxCell id="2_v6h10c_rz7eVXnYMiM-36" value="" style="rounded=1;whiteSpace=wrap;html=1;" vertex="1" parent="1">
          <mxGeometry x="1220" y="95" width="320" height="660" as="geometry" />
        </mxCell>
        <mxCell id="2_v6h10c_rz7eVXnYMiM-38" value="&lt;font style=&quot;font-size: 18px;&quot;&gt;Hai, Username!&lt;/font&gt;" style="text;html=1;align=center;verticalAlign=middle;whiteSpace=wrap;rounded=0;" vertex="1" parent="1">
          <mxGeometry x="1250" y="140" width="130" height="30" as="geometry" />
        </mxCell>
        <mxCell id="2_v6h10c_rz7eVXnYMiM-42" value="" style="group" vertex="1" connectable="0" parent="1">
          <mxGeometry x="1470" y="130" width="40" height="40" as="geometry" />
        </mxCell>
        <mxCell id="2_v6h10c_rz7eVXnYMiM-39" value="" style="ellipse;whiteSpace=wrap;html=1;aspect=fixed;" vertex="1" parent="2_v6h10c_rz7eVXnYMiM-42">
          <mxGeometry width="40" height="40" as="geometry" />
        </mxCell>
        <mxCell id="2_v6h10c_rz7eVXnYMiM-40" value="" style="ellipse;whiteSpace=wrap;html=1;aspect=fixed;" vertex="1" parent="2_v6h10c_rz7eVXnYMiM-42">
          <mxGeometry x="12" y="0.8" width="16" height="16" as="geometry" />
        </mxCell>
        <mxCell id="2_v6h10c_rz7eVXnYMiM-41" value="" style="shape=xor;whiteSpace=wrap;html=1;rotation=-90;" vertex="1" parent="2_v6h10c_rz7eVXnYMiM-42">
          <mxGeometry x="13.503999999999998" y="7" width="13" height="33" as="geometry" />
        </mxCell>
        <mxCell id="2_v6h10c_rz7eVXnYMiM-44" value="" style="shape=link;html=1;rounded=0;exitX=0;exitY=1;exitDx=0;exitDy=0;" edge="1" parent="1">
          <mxGeometry width="100" relative="1" as="geometry">
            <mxPoint x="1250" y="180" as="sourcePoint" />
            <mxPoint x="1510" y="180" as="targetPoint" />
          </mxGeometry>
        </mxCell>
        <mxCell id="2_v6h10c_rz7eVXnYMiM-45" value="" style="ellipse;whiteSpace=wrap;html=1;aspect=fixed;fillColor=#FF99FF;" vertex="1" parent="1">
          <mxGeometry x="1270" y="243" width="220" height="220" as="geometry" />
        </mxCell>
        <mxCell id="2_v6h10c_rz7eVXnYMiM-46" value="" style="ellipse;whiteSpace=wrap;html=1;aspect=fixed;" vertex="1" parent="1">
          <mxGeometry x="1290" y="263" width="180" height="180" as="geometry" />
        </mxCell>
        <mxCell id="2_v6h10c_rz7eVXnYMiM-50" value="" style="ellipse;whiteSpace=wrap;html=1;aspect=fixed;" vertex="1" parent="1">
          <mxGeometry x="1400" y="428" width="30" height="30" as="geometry" />
        </mxCell>
        <mxCell id="2_v6h10c_rz7eVXnYMiM-51" value="&lt;font style=&quot;font-size: 24px;&quot;&gt;LOADING&lt;/font&gt;" style="text;html=1;align=center;verticalAlign=middle;whiteSpace=wrap;rounded=0;" vertex="1" parent="1">
          <mxGeometry x="1350" y="338" width="60" height="30" as="geometry" />
        </mxCell>
        <mxCell id="2_v6h10c_rz7eVXnYMiM-52" value="&lt;font style=&quot;font-size: 18px;&quot;&gt;&lt;b&gt;Harap Tunggu&lt;/b&gt;&lt;/font&gt;" style="text;html=1;align=center;verticalAlign=middle;whiteSpace=wrap;rounded=0;" vertex="1" parent="1">
          <mxGeometry x="1317.5" y="489" width="125" height="30" as="geometry" />
        </mxCell>
        <mxCell id="2_v6h10c_rz7eVXnYMiM-53" value="&lt;b&gt;&lt;font style=&quot;font-size: 24px;&quot;&gt;Mengecek Kartu Kredit&lt;/font&gt;&lt;/b&gt;" style="text;html=1;align=center;verticalAlign=middle;whiteSpace=wrap;rounded=0;" vertex="1" parent="1">
          <mxGeometry x="1231.25" y="519" width="297.5" height="30" as="geometry" />
        </mxCell>
        <mxCell id="2_v6h10c_rz7eVXnYMiM-55" value="" style="rounded=1;whiteSpace=wrap;html=1;" vertex="1" parent="1">
          <mxGeometry x="1610" y="95" width="320" height="660" as="geometry" />
        </mxCell>
        <mxCell id="2_v6h10c_rz7eVXnYMiM-56" value="&lt;font style=&quot;font-size: 18px;&quot;&gt;Hai, Username!&lt;/font&gt;" style="text;html=1;align=center;verticalAlign=middle;whiteSpace=wrap;rounded=0;" vertex="1" parent="1">
          <mxGeometry x="1640" y="140" width="130" height="30" as="geometry" />
        </mxCell>
        <mxCell id="2_v6h10c_rz7eVXnYMiM-57" value="" style="group" vertex="1" connectable="0" parent="1">
          <mxGeometry x="1860" y="130" width="40" height="40" as="geometry" />
        </mxCell>
        <mxCell id="2_v6h10c_rz7eVXnYMiM-58" value="" style="ellipse;whiteSpace=wrap;html=1;aspect=fixed;" vertex="1" parent="2_v6h10c_rz7eVXnYMiM-57">
          <mxGeometry width="40" height="40" as="geometry" />
        </mxCell>
        <mxCell id="2_v6h10c_rz7eVXnYMiM-59" value="" style="ellipse;whiteSpace=wrap;html=1;aspect=fixed;" vertex="1" parent="2_v6h10c_rz7eVXnYMiM-57">
          <mxGeometry x="12" y="0.8" width="16" height="16" as="geometry" />
        </mxCell>
        <mxCell id="2_v6h10c_rz7eVXnYMiM-60" value="" style="shape=xor;whiteSpace=wrap;html=1;rotation=-90;" vertex="1" parent="2_v6h10c_rz7eVXnYMiM-57">
          <mxGeometry x="13.503999999999998" y="7" width="13" height="33" as="geometry" />
        </mxCell>
        <mxCell id="2_v6h10c_rz7eVXnYMiM-61" value="" style="shape=link;html=1;rounded=0;exitX=0;exitY=1;exitDx=0;exitDy=0;" edge="1" parent="1">
          <mxGeometry width="100" relative="1" as="geometry">
            <mxPoint x="1640" y="180" as="sourcePoint" />
            <mxPoint x="1900" y="180" as="targetPoint" />
          </mxGeometry>
        </mxCell>
        <mxCell id="2_v6h10c_rz7eVXnYMiM-68" value="&lt;b&gt;&lt;font style=&quot;font-size: 24px;&quot;&gt;Kartu Kredit Ditolak X&lt;/font&gt;&lt;/b&gt;" style="text;html=1;align=center;verticalAlign=middle;whiteSpace=wrap;rounded=0;" vertex="1" parent="1">
          <mxGeometry x="1621.25" y="315" width="297.5" height="30" as="geometry" />
        </mxCell>
        <mxCell id="2_v6h10c_rz7eVXnYMiM-70" value="#000 000 000 000" style="rounded=1;whiteSpace=wrap;html=1;" vertex="1" parent="1">
          <mxGeometry x="1640" y="375" width="190" height="30" as="geometry" />
        </mxCell>
        <mxCell id="2_v6h10c_rz7eVXnYMiM-71" value="Masukkan Kartu Kredit" style="text;html=1;align=left;verticalAlign=middle;whiteSpace=wrap;rounded=0;" vertex="1" parent="1">
          <mxGeometry x="1640" y="350" width="160" height="30" as="geometry" />
        </mxCell>
        <mxCell id="2_v6h10c_rz7eVXnYMiM-73" value="Batal" style="rounded=1;whiteSpace=wrap;html=1;" vertex="1" parent="1">
          <mxGeometry x="1750" y="425" width="70" height="20" as="geometry" />
        </mxCell>
        <mxCell id="2_v6h10c_rz7eVXnYMiM-74" value="Lanjut" style="rounded=1;whiteSpace=wrap;html=1;" vertex="1" parent="1">
          <mxGeometry x="1830" y="425" width="70" height="20" as="geometry" />
        </mxCell>
        <mxCell id="2_v6h10c_rz7eVXnYMiM-122" value="" style="rounded=1;whiteSpace=wrap;html=1;" vertex="1" parent="1">
          <mxGeometry x="60" y="850" width="320" height="660" as="geometry" />
        </mxCell>
        <mxCell id="2_v6h10c_rz7eVXnYMiM-123" value="&lt;font style=&quot;font-size: 18px;&quot;&gt;Hai, Username!&lt;/font&gt;" style="text;html=1;align=center;verticalAlign=middle;whiteSpace=wrap;rounded=0;" vertex="1" parent="1">
          <mxGeometry x="90" y="895" width="130" height="30" as="geometry" />
        </mxCell>
        <mxCell id="2_v6h10c_rz7eVXnYMiM-124" value="" style="group" vertex="1" connectable="0" parent="1">
          <mxGeometry x="310" y="885" width="40" height="40" as="geometry" />
        </mxCell>
        <mxCell id="2_v6h10c_rz7eVXnYMiM-125" value="" style="ellipse;whiteSpace=wrap;html=1;aspect=fixed;" vertex="1" parent="2_v6h10c_rz7eVXnYMiM-124">
          <mxGeometry width="40" height="40" as="geometry" />
        </mxCell>
        <mxCell id="2_v6h10c_rz7eVXnYMiM-126" value="" style="ellipse;whiteSpace=wrap;html=1;aspect=fixed;" vertex="1" parent="2_v6h10c_rz7eVXnYMiM-124">
          <mxGeometry x="12" y="0.8" width="16" height="16" as="geometry" />
        </mxCell>
        <mxCell id="2_v6h10c_rz7eVXnYMiM-127" value="" style="shape=xor;whiteSpace=wrap;html=1;rotation=-90;" vertex="1" parent="2_v6h10c_rz7eVXnYMiM-124">
          <mxGeometry x="13.503999999999998" y="7" width="13" height="33" as="geometry" />
        </mxCell>
        <mxCell id="2_v6h10c_rz7eVXnYMiM-128" value="" style="shape=link;html=1;rounded=0;exitX=0;exitY=1;exitDx=0;exitDy=0;" edge="1" parent="1">
          <mxGeometry width="100" relative="1" as="geometry">
            <mxPoint x="90" y="935" as="sourcePoint" />
            <mxPoint x="350" y="935" as="targetPoint" />
          </mxGeometry>
        </mxCell>
        <mxCell id="2_v6h10c_rz7eVXnYMiM-129" value="&lt;font style=&quot;font-size: 14px;&quot;&gt;ORDER ID : #2215016135&lt;/font&gt;" style="text;html=1;align=left;verticalAlign=middle;whiteSpace=wrap;rounded=0;" vertex="1" parent="1">
          <mxGeometry x="90" y="940" width="260" height="30" as="geometry" />
        </mxCell>
        <mxCell id="2_v6h10c_rz7eVXnYMiM-130" value="&lt;span style=&quot;font-size: 14px;&quot;&gt;STATUS : PAYMENT ACCEPTED&lt;/span&gt;" style="text;html=1;align=left;verticalAlign=middle;whiteSpace=wrap;rounded=0;" vertex="1" parent="1">
          <mxGeometry x="90" y="980" width="260" height="30" as="geometry" />
        </mxCell>
        <mxCell id="2_v6h10c_rz7eVXnYMiM-132" value="&lt;span style=&quot;font-size: 14px;&quot;&gt;PRODUCT NAME : DRAGON BALL&lt;/span&gt;" style="text;html=1;align=left;verticalAlign=middle;whiteSpace=wrap;rounded=0;" vertex="1" parent="1">
          <mxGeometry x="90" y="1020" width="260" height="30" as="geometry" />
        </mxCell>
        <mxCell id="2_v6h10c_rz7eVXnYMiM-133" value="&lt;span style=&quot;font-size: 14px;&quot;&gt;TOTAL PRODUCT : 7x&lt;/span&gt;" style="text;html=1;align=left;verticalAlign=middle;whiteSpace=wrap;rounded=0;" vertex="1" parent="1">
          <mxGeometry x="90" y="1060" width="260" height="30" as="geometry" />
        </mxCell>
        <mxCell id="2_v6h10c_rz7eVXnYMiM-134" value="&lt;span style=&quot;font-size: 14px;&quot;&gt;TOTAL COST : 7 x IDR 80.000 = 560000&lt;/span&gt;" style="text;html=1;align=left;verticalAlign=middle;whiteSpace=wrap;rounded=0;" vertex="1" parent="1">
          <mxGeometry x="90" y="1100" width="260" height="30" as="geometry" />
        </mxCell>
        <mxCell id="2_v6h10c_rz7eVXnYMiM-135" value="&lt;span style=&quot;font-size: 14px;&quot;&gt;BUYER NAME : Uzumaki Goku&lt;/span&gt;" style="text;html=1;align=left;verticalAlign=middle;whiteSpace=wrap;rounded=0;" vertex="1" parent="1">
          <mxGeometry x="90" y="1140" width="260" height="30" as="geometry" />
        </mxCell>
        <mxCell id="2_v6h10c_rz7eVXnYMiM-136" value="&lt;span style=&quot;font-size: 14px;&quot;&gt;ADDRESS : Grove Street 47&lt;/span&gt;" style="text;html=1;align=left;verticalAlign=middle;whiteSpace=wrap;rounded=0;" vertex="1" parent="1">
          <mxGeometry x="90" y="1180" width="260" height="30" as="geometry" />
        </mxCell>
        <mxCell id="2_v6h10c_rz7eVXnYMiM-137" value="" style="shape=link;html=1;rounded=0;exitX=0;exitY=1;exitDx=0;exitDy=0;" edge="1" parent="1">
          <mxGeometry width="100" relative="1" as="geometry">
            <mxPoint x="95" y="1140" as="sourcePoint" />
            <mxPoint x="355" y="1140" as="targetPoint" />
          </mxGeometry>
        </mxCell>
        <mxCell id="2_v6h10c_rz7eVXnYMiM-138" value="&lt;span style=&quot;font-size: 14px;&quot;&gt;BUYER ID : DX245SH67ALIENZ&lt;/span&gt;" style="text;html=1;align=left;verticalAlign=middle;whiteSpace=wrap;rounded=0;" vertex="1" parent="1">
          <mxGeometry x="90" y="1220" width="260" height="30" as="geometry" />
        </mxCell>
        <mxCell id="2_v6h10c_rz7eVXnYMiM-139" value="&lt;span style=&quot;font-size: 14px;&quot;&gt;OTORITATION CODE : 2215016135ALIENZ&lt;/span&gt;" style="text;html=1;align=left;verticalAlign=middle;whiteSpace=wrap;rounded=0;" vertex="1" parent="1">
          <mxGeometry x="90" y="1260" width="260" height="30" as="geometry" />
        </mxCell>
        <mxCell id="2_v6h10c_rz7eVXnYMiM-140" value="Kartu Kredit" style="rounded=1;whiteSpace=wrap;html=1;" vertex="1" parent="1">
          <mxGeometry x="570" y="477" width="260" height="40" as="geometry" />
        </mxCell>
        <mxCell id="2_v6h10c_rz7eVXnYMiM-141" value="Info Kartu Kredit 1" style="rounded=1;whiteSpace=wrap;html=1;" vertex="1" parent="1">
          <mxGeometry x="570" y="532" width="260" height="40" as="geometry" />
        </mxCell>
        <mxCell id="2_v6h10c_rz7eVXnYMiM-142" value="Info Kartu Kredit 2" style="rounded=1;whiteSpace=wrap;html=1;" vertex="1" parent="1">
          <mxGeometry x="570" y="590" width="260" height="40" as="geometry" />
        </mxCell>
      </root>
    </mxGraphModel>
  </diagram>
</mxfile>
